HIERARCHY
ROOT Hips
{
	OFFSET 0.000000 0.000000 0.000000
	CHANNELS 6 Xposition Yposition Zposition Zrotation Yrotation Xrotation 
	JOINT LHipJoint
	{
		OFFSET 0.000000 0.000000 0.000000
		CHANNELS 3 Zrotation Yrotation Xrotation
		JOINT LeftUpLeg
		{
			OFFSET 1.363060 -1.794630 0.839290
			CHANNELS 3 Zrotation Yrotation Xrotation
			JOINT LeftLeg
			{
				OFFSET 2.448110 -6.726130 0.000000
				CHANNELS 3 Zrotation Yrotation Xrotation
				JOINT LeftFoot
				{
					OFFSET 2.562200 -7.039590 0.000000
					CHANNELS 3 Zrotation Yrotation Xrotation
					JOINT LeftToeBase
					{
						OFFSET 0.157640 -0.433110 2.322550
						CHANNELS 3 Zrotation Yrotation Xrotation
						End Site
						{
							OFFSET 0.000000 0.000000 0.000000
						}
					}
				}
			}
		}
	}
	JOINT RHipJoint
	{
		OFFSET 0.000000 0.000000 0.000000
		CHANNELS 3 Zrotation Yrotation Xrotation
		JOINT RightUpLeg
		{
			OFFSET -1.305520 -1.794630 0.839290
			CHANNELS 3 Zrotation Yrotation Xrotation
			JOINT RightLeg
			{
				OFFSET -2.542530 -6.985550 0.000000
				CHANNELS 3 Zrotation Yrotation Xrotation
				JOINT RightFoot
				{
					OFFSET -2.568260 -7.056230 0.000000
					CHANNELS 3 Zrotation Yrotation Xrotation
					JOINT RightToeBase
					{
						OFFSET -0.164730 -0.452590 2.363150
						CHANNELS 3 Zrotation Yrotation Xrotation
						End Site
						{
							OFFSET 0.000000 0.000000 0.000000
						}
					}
				}
			}
		}
	}
	JOINT LowerBack
	{
		OFFSET 0.000000 0.000000 0.000000
		CHANNELS 3 Zrotation Yrotation Xrotation
		JOINT Spine
		{
			OFFSET 0.028270 2.035590 -0.193380
			CHANNELS 3 Zrotation Yrotation Xrotation
			JOINT Spine1
			{
				OFFSET 0.056720 2.048850 -0.042750
				CHANNELS 3 Zrotation Yrotation Xrotation
				JOINT Neck
				{
					OFFSET 0.000000 0.000000 0.000000
					CHANNELS 3 Zrotation Yrotation Xrotation
					JOINT Neck1
					{
						OFFSET -0.054170 1.746240 0.172020
						CHANNELS 3 Zrotation Yrotation Xrotation
						JOINT Head
						{
							OFFSET 0.104070 1.761360 -0.123970
							CHANNELS 3 Zrotation Yrotation Xrotation
							End Site
							{
								OFFSET 0.000000 0.000000 0.000000
							}
						}
					}
				}
				JOINT LeftShoulder
				{
					OFFSET 0.000000 0.000000 0.000000
					CHANNELS 3 Zrotation Yrotation Xrotation
					JOINT LeftArm
					{
						OFFSET 3.362410 1.200890 -0.311210
						CHANNELS 3 Zrotation Yrotation Xrotation
						JOINT LeftForeArm
						{
							OFFSET 4.983000 -0.000000 -0.000000
							CHANNELS 3 Zrotation Yrotation Xrotation
							JOINT LeftHand
							{
								OFFSET 3.483560 -0.000000 -0.000000
								CHANNELS 3 Zrotation Yrotation Xrotation
								JOINT LeftFingerBase
								{
									OFFSET 0.000000 0.000000 0.000000
									CHANNELS 3 Zrotation Yrotation Xrotation
									JOINT LeftHandIndex1
									{
										OFFSET 0.715260 -0.000000 -0.000000
										CHANNELS 3 Zrotation Yrotation Xrotation
										End Site
										{
											OFFSET 0.000000 0.000000 0.000000
										}
									}
								}
								JOINT LThumb
								{
									OFFSET 0.000000 0.000000 0.000000
									CHANNELS 3 Zrotation Yrotation Xrotation
									End Site
									{
										OFFSET 0.000000 0.000000 0.000000
									}
								}
							}
						}
					}
				}
				JOINT RightShoulder
				{
					OFFSET 0.000000 0.000000 0.000000
					CHANNELS 3 Zrotation Yrotation Xrotation
					JOINT RightArm
					{
						OFFSET -3.136600 1.374050 -0.404650
						CHANNELS 3 Zrotation Yrotation Xrotation
						JOINT RightForeArm
						{
							OFFSET -5.241900 -0.000000 -0.000000
							CHANNELS 3 Zrotation Yrotation Xrotation
							JOINT RightHand
							{
								OFFSET -3.444170 -0.000000 -0.000000
								CHANNELS 3 Zrotation Yrotation Xrotation
								JOINT RightFingerBase
								{
									OFFSET 0.000000 0.000000 0.000000
									CHANNELS 3 Zrotation Yrotation Xrotation
									JOINT RightHandIndex1
									{
										OFFSET -0.622530 -0.000000 -0.000000
										CHANNELS 3 Zrotation Yrotation Xrotation
										End Site
										{
											OFFSET 0.000000 0.000000 0.000000
										}
									}
								}
								JOINT RThumb
								{
									OFFSET 0.000000 0.000000 0.000000
									CHANNELS 3 Zrotation Yrotation Xrotation
									End Site
									{
										OFFSET 0.000000 0.000000 0.000000
									}
								}
							}
						}
					}
				}
			}
		}
	}
}
MOTION
Frames: 8
Frame Time: 0.033333
0.031662 8.536228 -0.191912 11.096726 -55.423430 12.188484 -5.246829 3.251140 2.237437 -14.422311 -1.274283 -30.786055 -4.218285 4.748170 38.507690 -3.255834 17.141621 -11.011957 4.254916 7.283464 -38.362365 7.483123 5.618391 0.129720 2.026522 2.112925 -16.980502 0.564600 -7.571009 29.904251 -3.916024 4.959454 -0.309092 3.009506 -2.948507 -29.522953 -0.372636 5.256891 3.501035 -8.498756 -5.730525 -0.795247 -14.251044 1.478923 2.000512 8.540461 -10.270689 -11.080153 -5.451648 -2.213225 -3.981151 3.374516 -1.314806 0.185360 -3.705897 18.304536 -1.526620 -60.238585 -13.850617 14.233282 -9.260993 -22.002671 0.321167 -1.680124 3.772735 2.392519 -3.234980 -4.797303 3.669785 -0.975097 -0.603636 -4.644384 4.831994 4.052848 -0.519436 17.856278 -6.716315 -3.114770 68.106882 6.731849 3.178207 5.279076 38.697736 1.307836 -2.978529 7.642358 -3.233171 0.818644 -0.080193 4.202330 5.190349 2.332245 0.038334 -0.662845 -2.589563 -0.216209 
-0.062015 8.580163 -0.095690 -2.230678 -47.598468 22.799868 -14.632771 0.909965 -2.905768 -7.132340 7.718683 -30.908887 0.756062 -3.432723 36.468838 5.988155 10.003818 -5.103921 5.463503 2.271651 -34.747993 7.315161 -0.215287 -5.198920 13.815374 -13.609360 -17.485746 6.771381 -2.839052 30.163438 2.292474 2.207775 2.756556 0.511161 -5.971673 -41.903849 2.180822 -2.450736 -2.521537 -5.886775 -0.216204 -7.884776 -9.019925 1.125832 -3.773719 10.962604 6.189685 -14.516614 -6.953483 -0.514332 -0.573548 -0.209198 3.418204 7.095914 -3.311933 22.481541 1.949587 -52.437136 0.588936 5.420862 -4.171743 -22.800178 0.101337 6.438739 6.330119 -3.705630 -1.854051 -0.590381 2.264288 4.689361 -3.155107 -3.595656 0.384574 -1.482910 -8.901053 13.763879 5.826610 -0.221838 66.665230 -4.886272 -5.019434 -0.662679 28.094830 0.333791 5.360186 12.923817 0.077306 0.012480 -6.299192 0.660345 4.779718 2.397729 4.248236 -0.088336 2.696440 -1.425584 
0.005926 8.542532 -0.049231 7.657617 -49.085952 15.372885 -9.582751 -6.637154 1.702666 -12.171930 1.639776 -31.860561 -3.330085 -2.550572 41.368408 9.765193 8.339456 3.809280 -3.078148 -1.876558 -35.808522 12.265022 -3.370248 8.024480 3.876685 2.364524 -22.538254 0.853319 3.882697 33.209641 3.027206 -1.405579 -5.571739 -0.762114 2.749745 -28.675804 -2.484625 2.691201 -0.054278 3.024607 4.767776 -9.927364 -16.561290 -3.018585 -0.778307 8.867395 4.472622 -12.721957 0.157411 3.708275 2.728123 -3.858115 -1.135674 1.351917 -3.624738 14.638667 4.152979 -62.857491 -2.880423 11.264551 -4.073241 -34.354592 -3.818911 5.424066 3.209149 -0.184069 -4.658844 -6.153432 -1.207375 6.057924 0.822406 6.532683 2.910913 3.179921 -0.731297 20.360598 -1.050739 0.885805 66.190034 5.101662 6.761393 1.669836 27.432413 -3.524426 1.360988 2.081850 -5.744591 -3.177109 -1.146986 2.316322 -3.426961 -0.132586 2.170814 -2.647203 -3.746301 -0.209325 
-0.025099 8.491799 0.185490 12.542816 -59.877656 8.026015 -13.088909 7.292820 3.289830 -7.109019 2.770364 -20.550005 -1.221550 1.844728 47.174359 2.549359 7.673290 -5.255379 2.977504 -0.923207 -44.380107 14.231167 -10.343039 0.313250 17.708072 -4.619932 -25.008741 1.236943 -0.395743 31.668864 -1.272039 3.092719 -7.825674 -11.130426 1.202017 -33.810904 -3.510539 -3.915875 8.436395 -1.202285 -3.927386 -5.166170 -5.143287 0.037434 2.479528 11.411828 -0.274210 -12.797226 -0.407117 1.590444 0.006565 -1.205254 -1.316724 0.717808 -5.396770 2.860025 7.430650 -57.500826 -12.300865 15.468179 -4.993333 -29.100018 7.789011 1.147462 1.670711 -3.179988 -3.259703 -3.437270 0.457229 -4.296968 -3.286122 -1.121939 -4.934905 -0.575557 -4.317203 21.131417 -6.384403 -6.912309 61.832219 9.853328 10.789281 4.989572 36.492651 5.660517 0.289037 12.218933 -3.097427 1.455608 0.857742 4.967196 5.472410 1.126378 -0.635179 1.355419 0.898435 -5.094635 
-0.095413 8.581093 0.244595 13.086204 -56.128731 6.327214 -12.614609 3.598104 -0.013169 -18.132807 8.771246 -30.494358 -1.835393 -4.329978 39.568360 -1.718535 17.774232 -11.365351 -3.111030 0.157446 -33.214741 7.626225 -7.599974 1.330160 13.819295 -5.959067 -12.584942 -3.341464 -3.826387 30.604177 1.310499 -3.153242 -4.508420 -1.668074 6.335446 -38.769248 -5.641552 4.611753 -0.225666 -1.892074 -2.246896 -6.056493 -10.348949 -2.265945 4.761695 5.592139 -6.880027 -7.807389 0.527107 1.286435 1.360146 3.660438 -11.141582 0.533629 -2.011353 4.753945 3.614252 -58.994358 -8.086004 15.428084 -7.907147 -26.309566 8.229335 3.039926 4.328846 -4.307287 -3.928851 -9.902737 -0.609495 1.516990 -1.394305 -0.923281 -0.927884 5.767931 -1.229220 21.680328 -7.617472 1.440731 68.243679 3.134155 3.498504 -0.344987 30.825024 -2.679123 2.706050 2.488502 0.170986 0.301734 4.698352 -3.833859 -8.851869 -8.371020 2.261370 -3.395001 -2.490279 3.182445 
0.037856 8.472914 0.394221 11.861666 -57.915067 19.095253 -15.267252 1.873630 -5.150522 -14.703979 1.959764 -23.426558 1.133787 -0.463756 45.204342 -1.746978 9.661634 -0.994506 1.641529 -0.152923 -42.344228 17.049854 2.943873 2.360410 10.910787 -3.955093 -21.936722 3.201660 -9.642646 36.193083 -6.679504 -0.998388 -2.456244 3.199189 6.043765 -39.484800 -3.416524 0.872096 5.339168 9.981063 5.467757 -7.528472 -6.677539 -1.777861 -0.493441 7.680056 0.529595 -5.198477 -9.494347 -1.806853 -2.624079 1.287048 2.727986 2.532776 1.338894 7.739772 4.383638 -72.142964 -10.017265 10.672519 -1.386664 -31.616791 -3.144534 -10.147833 3.649648 1.529492 -1.791517 0.873221 2.270271 0.068581 2.625049 1.004082 2.108841 5.610243 8.217800 21.076791 3.872484 0.983632 73.139333 11.532633 6.651310 7.075140 32.368761 4.306637 -1.434407 -1.101350 -0.169909 6.262615 7.393581 0.388247 1.770778 -6.716054 -3.106673 1.475429 7.919156 5.346096 
-0.057933 8.578802 0.363212 -0.053036 -43.731999 16.591726 -12.184501 -3.610384 3.539765 -8.233137 2.212041 -16.263559 6.944123 0.587615 37.758876 0.088060 7.127696 -11.193613 -3.879059 -3.948733 -30.459063 10.006513 -5.484613 2.769673 14.611178 -7.491234 -18.811294 3.336349 -3.676045 31.472241 -1.352234 6.849437 -6.329491 -3.065205 -3.294309 -31.680484 -5.716129 3.221891 0.593669 -0.778976 1.868124 -15.490255 -7.423367 -3.329295 4.304698 10.211648 -2.764488 0.488212 -7.934494 -0.537900 4.329930 -1.113001 0.364854 -0.377747 -1.825597 11.703918 6.463974 -60.884874 -7.817622 12.496181 -3.810233 -32.925341 4.277574 1.098029 1.561785 0.469679 -2.843077 1.360119 -2.630954 3.542006 -1.603628 6.899445 -0.228119 6.599491 2.219930 8.871915 -1.188899 2.643513 75.238626 3.825120 2.122728 -8.788631 31.415674 -1.028764 4.773365 3.996969 -5.036086 -0.940794 -2.119034 2.771317 -6.363662 0.255650 4.960872 1.421510 -0.841385 -10.041000 
0.004314 8.623440 0.354036 5.165132 -51.122077 24.249848 -10.988280 -1.602072 3.292254 -13.840285 5.083307 -27.463945 2.591261 1.854936 43.519687 4.860021 10.935436 -2.287581 3.500250 5.058538 -33.160767 13.700494 -5.810080 7.226083 14.562511 -5.631903 -18.498007 1.641564 -6.372075 38.336454 -3.962124 7.661118 -1.924360 -4.321536 2.474629 -35.000180 -5.194755 2.680836 -3.141849 -3.561467 -5.115934 -7.252258 -12.355434 3.238458 -0.236063 6.724145 1.820286 -6.800822 5.432859 -2.126362 -6.068444 7.413499 -7.833908 -8.668273 -4.619742 0.723863 3.594735 -65.172490 -5.606934 2.849697 1.685324 -34.550493 -5.554206 -1.919586 3.034587 -2.710144 3.412199 3.572956 3.307071 -3.915838 -2.922383 -0.305058 -3.823169 2.737345 -10.881425 19.024138 -6.496603 2.045759 63.032956 4.919402 -1.296564 2.486487 23.947697 -1.117497 4.820947 16.365967 1.942631 9.243297 1.266482 1.626404 2.991383 -2.601632 0.438740 2.955622 0.214505 3.145115 
